<svg width="830" height="314" viewBox="0 0 830 314" fill="none" xmlns="http://www.w3.org/2000/svg">
<path d="M0 222.124V31.6305H57.1112C78.9207 31.6305 97.8653 35.6218 113.945 43.6044C130.21 51.4056 142.686 62.563 151.372 77.0768C160.244 91.4092 164.68 108.009 164.68 126.877C164.68 145.745 160.244 162.436 151.372 176.95C142.686 191.282 130.21 202.439 113.945 210.422C97.8653 218.223 78.9207 222.124 57.1112 222.124H0ZM57.1112 194.094C72.8214 194.094 86.4061 191.373 97.8653 185.93C109.325 180.306 118.104 172.414 124.203 162.255C130.302 152.095 52.7093 139.048 52.7093 125.623C52.7093 112.198 130.302 101.66 124.203 91.4999C118.104 81.3402 109.325 73.4484 97.8653 67.8243C86.4061 62.2002 72.8214 59.3881 57.1112 59.3881H30.4963V194.094H57.1112Z" fill="#201F1D"/>
<path d="M240.747 83.0638C253.315 83.0638 264.959 86.0572 275.679 92.0442C286.584 97.8497 295.178 105.923 301.463 116.264C307.931 126.605 311.166 138.307 311.166 151.369C311.166 156.086 310.796 160.35 310.057 164.159H199.439C201.102 175.589 205.538 184.569 212.746 191.101C220.139 197.632 229.473 200.897 240.747 200.897C257.566 200.897 269.765 194.366 277.343 181.304H307.007C301.463 194.729 292.961 205.433 281.501 213.416C270.227 221.217 256.642 225.117 240.747 225.117C227.809 225.117 215.888 222.124 204.983 216.137C194.079 209.969 185.392 201.532 178.923 190.828C172.639 179.943 169.497 167.697 169.497 154.091C169.497 140.484 172.639 128.329 178.923 117.625C185.392 106.739 194.079 98.3032 204.983 92.3163C215.888 86.1479 227.809 83.0638 240.747 83.0638ZM240.747 107.284C229.843 107.284 220.786 110.277 213.578 116.264C206.554 122.251 202.026 130.506 199.993 141.028H281.224C279.746 131.05 275.402 122.977 268.194 116.808C260.986 110.459 251.837 107.284 240.747 107.284Z" fill="#201F1D"/>
<path d="M654.508 86.0572H682.509V211.783C682.509 225.027 679.737 236.91 674.192 247.432C668.647 257.955 660.515 266.209 649.795 272.196C639.075 278.365 626.414 281.449 611.813 281.449C594.07 281.449 579.191 276.913 567.178 267.842C555.349 258.952 547.401 247.069 543.335 232.193H572.722C575.864 239.268 580.762 244.892 587.416 249.065C594.07 253.238 602.11 255.324 611.536 255.324C624.659 255.324 634.916 251.423 642.309 243.622C649.887 236.003 653.676 226.115 653.676 213.96V199.809C648.316 205.796 641.662 210.513 633.715 213.96C625.952 217.407 617.265 219.13 607.654 219.13C595.456 219.13 584.089 216.318 573.554 210.694C563.204 204.889 554.887 196.815 548.603 186.474C542.503 176.133 539.454 164.341 539.454 151.097C539.454 137.853 542.503 126.061 548.603 115.72C554.887 105.379 563.204 97.3961 573.554 91.772C584.089 85.9665 595.456 83.0638 607.654 83.0638C626.876 83.0638 642.494 89.8671 654.508 103.474V86.0572ZM611.813 193.55C619.945 193.55 627.338 191.736 633.992 188.107C640.646 184.297 645.821 179.217 649.518 172.868C653.214 166.336 655.062 159.08 655.062 151.097C655.062 143.115 653.214 135.948 649.518 129.599C645.821 123.067 640.646 117.988 633.992 114.359C627.338 110.549 619.945 108.644 611.813 108.644C603.496 108.644 596.01 110.549 589.357 114.359C582.888 117.988 577.805 123.067 574.109 129.599C570.412 135.948 568.564 143.115 568.564 151.097C568.564 159.08 570.412 166.336 574.109 172.868C577.805 179.217 582.888 184.297 589.357 188.107C596.01 191.736 603.496 193.55 611.813 193.55Z" fill="#201F1D"/>
<path d="M773.443 83.0638C784.348 83.0638 794.051 85.6944 802.553 90.9556C811.24 96.0354 817.986 103.111 822.792 112.182C827.597 121.072 830 131.05 830 142.117V222.124H801.167V145.654C801.167 134.769 798.117 126.061 792.018 119.53C786.104 112.817 777.971 109.461 767.621 109.461C757.456 109.461 748.954 112.817 742.115 119.53C735.277 126.242 731.857 134.951 731.857 145.654V222.124H703.025V86.0572H731.026V102.113C736.57 95.9447 742.947 91.2278 750.155 87.9622C757.363 84.6966 765.126 83.0638 773.443 83.0638Z" fill="#201F1D"/>
<path d="M414.197 0H446.348V254.826H414.197V0ZM412.96 281.834H448.203V314H412.96V281.834Z" fill="#201F1D"/>
<path d="M526.845 155.307C526.845 169.469 524.256 181.996 519.077 192.889C513.898 203.601 506.499 211.953 496.881 217.944C487.263 223.935 475.981 227.022 463.033 227.203V188.26C472.281 187.897 479.495 184.992 484.674 179.545C489.668 173.917 492.165 166.019 492.165 155.852C492.165 146.048 490.223 138.604 486.339 133.521C482.454 128.256 477.183 125.623 470.524 125.623C465.16 125.623 460.814 127.257 457.485 130.525C453.97 133.793 451.196 137.878 449.161 142.78C446.942 147.5 444.352 154.309 441.393 163.205C437.139 175.732 433.07 185.899 429.185 193.706C425.116 201.513 419.105 208.231 411.152 213.859C403.198 219.487 392.748 222.301 379.801 222.301C369.628 222.301 360.472 219.578 352.334 214.131C344.011 208.503 337.537 200.696 332.913 190.711C328.289 180.544 325.977 169.106 325.977 156.397C325.977 144.777 328.381 133.975 333.19 123.989C337.814 113.822 344.658 105.652 353.721 99.479C362.784 93.3062 373.512 90.1289 385.904 89.9474V128.891C378.506 129.254 372.495 131.796 367.871 136.516C363.062 141.055 360.657 147.864 360.657 156.941C360.657 165.111 362.507 171.557 366.206 176.277C369.72 180.997 374.529 183.358 380.633 183.358C385.812 183.358 390.159 181.814 393.673 178.728C397.187 175.46 400.054 171.375 402.273 166.473C404.308 161.389 406.713 154.581 409.487 146.048C413.741 133.521 417.903 123.354 421.972 115.547C425.856 107.558 431.867 100.75 440.006 95.1217C447.959 89.4935 458.502 86.6794 471.634 86.6794C481.807 86.6794 491.148 89.4935 499.656 95.1217C507.979 100.75 514.638 108.738 519.632 119.087C524.441 129.436 526.845 141.509 526.845 155.307Z" fill="#201F1D"/>
</svg>
